<mxfile host="app.diagrams.net" modified="2024-05-05T01:32:01.830Z" agent="Mozilla/5.0 (Windows NT 10.0; Win64; x64) AppleWebKit/537.36 (KHTML, like Gecko) Chrome/124.0.0.0 Safari/537.36 Edg/124.0.0.0" version="24.3.1" etag="wJ6KnSNMFxcih820Slog" type="github">
  <diagram name="第 1 页" id="ngdT4I_7DlufAv4UWU_9">
    <mxGraphModel>
      <root>
        <mxCell id="0" />
        <mxCell id="1" parent="0" />
      </root>
    </mxGraphModel>
  </diagram>
</mxfile>
